# File created by Blade
# Date/Time:  Wed Apr 08 17:12:12 2015
# Frame Rate: 120.000 fps
#------------------------------------------------------
:FULLY-SPECIFIED
:DEGREES
1645
root 5.274947 36.443603 -0.440916 228.465289 -83.680383 -200.416484
Spine -31.472661 0.220275 -5.789582
Head 16.540245 14.371079 5.305138
LeftShoulder -6.028232 12.256116 30.479303
LeftArm 13.814007 -37.280611 -31.700810
LeftForeArm 25.330545 -0.000000 2.641013
LeftHand -10.719730 -0.000000 -14.865376
LeftHandThumb1 -26.253704 0.000000 33.147579
RightShoulder -23.934140 -42.428326 -13.763195
RightArm 50.477754 49.232135 49.095491
RightForeArm 2.641676 -0.000000 -1.013181
RightHand -2.310163 -0.000000 10.348325
RightHandThumb1 -24.326973 -0.000000 -32.862282
LeftUpLeg -29.223388 13.357619 -5.951151
LeftLeg 12.231043 -0.000000 -0.000000
LeftFoot -12.444319 13.483696 -19.310832
LeftToeBase 7.044142 -0.000000 -0.000000
RightUpLeg -29.113476 -4.560057 -7.191121
RightLeg 11.960670 -0.000000 -0.000000
RightFoot -12.732356 -7.953493 20.470011
RightToeBase 9.236815 -0.000000 -0.000000
1646
root 5.279917 36.443824 -0.441430 228.564781 -83.701057 -200.508058
Spine -31.459662 0.216053 -5.756481
Head 16.530647 14.405663 5.302978
LeftShoulder -6.061493 12.348255 30.425454
LeftArm 13.950442 -37.314766 -31.719142
LeftForeArm 25.314148 -0.000000 2.599229
LeftHand -10.620681 -0.000000 -14.859282
LeftHandThumb1 -26.253704 0.000000 33.147579
RightShoulder -23.937851 -42.432223 -13.757101
RightArm 50.507566 49.251986 49.143717
RightForeArm 2.628872 0.000000 -0.998474
RightHand -2.344274 -0.000000 10.352862
RightHandThumb1 -24.326973 -0.000000 -32.862282
LeftUpLeg -29.247879 13.341957 -5.947847
LeftLeg 12.242739 -0.000000 -0.000000
LeftFoot -12.433819 13.480070 -19.294790
LeftToeBase 7.038599 -0.000000 -0.000000
RightUpLeg -29.125779 -4.575185 -7.180851
RightLeg 11.963058 -0.000000 -0.000000
RightFoot -12.739688 -7.961987 20.466950
RightToeBase 9.276610 -0.000000 -0.000000
1647
root 5.284768 36.444110 -0.441107 228.691668 -83.714116 -200.632990
Spine -31.438543 0.212938 -5.733258
Head 16.520510 14.438314 5.309974
LeftShoulder -6.034894 12.317049 30.438157
LeftArm 13.893770 -37.293516 -31.720457
LeftForeArm 25.247634 -0.000000 2.615938
LeftHand -10.605254 -0.000000 -14.731039
LeftHandThumb1 -26.253704 0.000000 33.147579
RightShoulder -23.938251 -42.423123 -13.751218
RightArm 50.519146 49.263647 49.168767
RightForeArm 2.612031 0.000000 -0.990028
RightHand -2.425248 -0.000000 10.414499
RightHandThumb1 -24.326973 -0.000000 -32.862282
LeftUpLeg -29.263455 13.328067 -5.951503
LeftLeg 12.248323 -0.000000 -0.000000
LeftFoot -12.421050 13.474954 -19.305712
LeftToeBase 7.030975 -0.000000 -0.000000
RightUpLeg -29.136643 -4.596842 -7.178679
RightLeg 11.970870 -0.000000 -0.000000
RightFoot -12.733151 -7.962629 20.454202
RightToeBase 9.252619 -0.000000 -0.000000
1648
root 5.290659 36.444611 -0.440651 228.779389 -83.720279 -200.721197
Spine -31.408147 0.213641 -5.715906
Head 16.497015 14.470504 5.317740
LeftShoulder -6.028291 12.282857 30.459322
LeftArm 13.869462 -37.344532 -31.766787
LeftForeArm 25.229115 0.000000 2.632494
LeftHand -10.599737 -0.000000 -14.720757
LeftHandThumb1 -26.253704 0.000000 33.147579
RightShoulder -23.930926 -42.403393 -13.752652
RightArm 50.501186 49.263664 49.173555
RightForeArm 2.600580 -0.000000 -0.988881
RightHand -2.374086 -0.000000 10.455951
RightHandThumb1 -24.326973 -0.000000 -32.862282
LeftUpLeg -29.272092 13.311780 -5.952579
LeftLeg 12.246583 -0.000000 -0.000000
LeftFoot -12.413454 13.484000 -19.305120
LeftToeBase 7.049143 -0.000000 -0.000000
RightUpLeg -29.151722 -4.622623 -7.170044
RightLeg 11.982672 -0.000000 -0.000000
RightFoot -12.730612 -7.968887 20.431783
RightToeBase 9.283168 -0.000000 -0.000000
1649
root 5.296043 36.445129 -0.440834 228.827516 -83.723488 -200.773095
Spine -31.379552 0.227575 -5.704680
Head 16.503858 14.472353 5.338528
LeftShoulder -6.030174 12.319726 30.453977
LeftArm 13.930894 -37.452817 -31.831484
LeftForeArm 25.160154 -0.000000 2.629319
LeftHand -10.644107 -0.000000 -14.727723
LeftHandThumb1 -26.253704 0.000000 33.147579
RightShoulder -23.938831 -42.401358 -13.749080
RightArm 50.506477 49.249586 49.191139
RightForeArm 2.546673 -0.000000 -0.990290
RightHand -2.390044 0.000000 10.396710
RightHandThumb1 -24.326973 -0.000000 -32.862282
LeftUpLeg -29.278039 13.314798 -5.958509
LeftLeg 12.244972 -0.000000 -0.000000
LeftFoot -12.403612 13.474412 -19.307804
LeftToeBase 7.055976 -0.000000 -0.000000
RightUpLeg -29.164702 -4.656176 -7.158839
RightLeg 11.996524 -0.000000 -0.000000
RightFoot -12.718649 -7.933824 20.428282
RightToeBase 9.297695 -0.000000 -0.000000
1650
root 5.301693 36.445707 -0.440837 228.859530 -83.726843 -200.813440
Spine -31.346175 0.244323 -5.697436
Head 16.493352 14.468300 5.371221
LeftShoulder -6.043784 12.351117 30.454510
LeftArm 14.006704 -37.468904 -31.875645
LeftForeArm 25.045023 0.000000 2.592156
LeftHand -10.691908 -0.000000 -14.725182
LeftHandThumb1 -26.253704 0.000000 33.147579
RightShoulder -23.941147 -42.407862 -13.745878
RightArm 50.486505 49.221220 49.175664
RightForeArm 2.461693 -0.000000 -0.993292
RightHand -2.401628 0.000000 10.280145
RightHandThumb1 -24.326973 -0.000000 -32.862282
LeftUpLeg -29.279021 13.303002 -5.955494
LeftLeg 12.245233 -0.000000 -0.000000
LeftFoot -12.388479 13.483712 -19.297981
LeftToeBase 7.036458 -0.000000 -0.000000
RightUpLeg -29.175002 -4.676742 -7.152380
RightLeg 12.012091 -0.000000 -0.000000
RightFoot -12.708136 -7.925149 20.420609
RightToeBase 9.295538 -0.000000 -0.000000
1651
root 5.306718 36.445425 -0.441235 228.910345 -83.736951 -200.894206
Spine -31.284166 0.256285 -5.684031
Head 16.471396 14.456754 5.390516
LeftShoulder -6.063100 12.401679 30.436468
LeftArm 14.107933 -37.550735 -31.930137
LeftForeArm 25.052603 -0.000000 2.555380
LeftHand -10.700460 -0.000000 -14.756895
LeftHandThumb1 -26.253704 0.000000 33.147579
RightShoulder -23.969441 -42.440214 -13.719146
RightArm 50.521174 49.228092 49.198660
RightForeArm 2.444064 -0.000000 -1.013802
RightHand -2.359516 -0.000000 10.287137
RightHandThumb1 -24.326973 -0.000000 -32.862282
LeftUpLeg -29.253985 13.302544 -5.951070
LeftLeg 12.236668 -0.000000 -0.000000
LeftFoot -12.382980 13.475301 -19.293100
LeftToeBase 7.057080 -0.000000 -0.000000
RightUpLeg -29.161063 -4.708191 -7.140099
RightLeg 12.029314 -0.000000 -0.000000
RightFoot -12.699862 -7.905271 20.401936
RightToeBase 9.249205 -0.000000 -0.000000
1652
root 5.312096 36.445990 -0.441956 228.903359 -83.734564 -200.898439
Spine -31.245450 0.271934 -5.670601
Head 16.447508 14.443647 5.398741
LeftShoulder -6.054841 12.389756 30.445574
LeftArm 14.096794 -37.588370 -31.950983
LeftForeArm 25.139325 -0.000000 2.544715
LeftHand -10.633864 0.000000 -14.917171
LeftHandThumb1 -26.253704 0.000000 33.147579
RightShoulder -23.935274 -42.405694 -13.757315
RightArm 50.412497 49.164893 49.107055
RightForeArm 2.361733 -0.000000 -1.027585
RightHand -2.343003 -0.000000 10.225533
RightHandThumb1 -24.326973 -0.000000 -32.862282
LeftUpLeg -29.251257 13.310732 -5.952981
LeftLeg 12.234707 -0.000000 -0.000000
LeftFoot -12.367144 13.474875 -19.279420
LeftToeBase 7.060366 -0.000000 -0.000000
RightUpLeg -29.169386 -4.722093 -7.133533
RightLeg 12.045611 -0.000000 -0.000000
RightFoot -12.688242 -7.890190 20.386396
RightToeBase 9.263756 -0.000000 -0.000000
